<svg width="100" height="60" fill="none" xmlns="http://www.w3.org/2000/svg"><path fill-rule="evenodd" clip-rule="evenodd" d="M69.4 33.504c.03-2.09.002-4.2.002-6.292 0-1.524-.359-4.172 2.157-4.07 2.376.096 2.053 2.617 2.053 4.14 0 2.079-.021 4.17.002 6.248l2.357-.004c.02-2.078.002-4.166.002-6.245 0-1.515-.331-4.115 2.139-4.143 2.458-.027 2.074 2.61 2.074 4.213 0 2.053-.023 4.12.003 6.178l2.465-.006c.023-1.868.003-3.748.003-5.617 0-1.839.142-3.512-.7-4.913-1.305-2.166-5.247-2.977-7.138.187-.274-.244-.457-.824-1.175-1.327-1.71-1.196-4.23-.749-6.71-.749l.002 12.431 2.464-.031zM32.167 23.02c2.417-.453 3.598 1.59 3.718 3.772.112 2.033-.237 4.618-2.617 5.01-2.42.398-3.627-1.505-3.725-3.755-.109-2.466.445-4.618 2.624-5.027zm6.238 5.025c.526-6.466-5.894-8.919-9.572-5.508-.957.888-1.654 2.373-1.802 4.212-.305 3.776 1.687 6.713 4.994 7.06 2.15.226 3.939-.634 4.96-1.878.374-.455.618-.86.867-1.422.328-.741.48-1.558.553-2.464zm6.01-4.858c3.205-.234 5.133.746 5.26 3.885.131 3.273-1.37 4.573-4.514 4.573l-.483.001-.263-.011v-8.448zm-2.413 10.332c2.053.123 5.556.202 7.316-.8 1.66-.944 2.88-2.621 2.878-5.3-.004-4.164-2.78-5.888-6.207-6.051-.987-.047-3.04-.123-3.989-.005l.002 12.156zm46.416-10.275h6.048c.025-.422.083-1.59-.04-1.9h-7.629c-.302-.002-.797-.104-.797.174v11.989l8.649.017.039-1.95h-6.251l-.004-3.382 5.735-.008v-1.87l-5.745-.005-.005-3.065zm-31.001-.004h6.049c.024-.423.083-1.59-.04-1.9h-7.629c-.302-.002-.797-.104-.797.174v11.989l8.649.016.039-1.95h-6.251l-.004-3.382 5.736-.007v-1.871l-5.745-.005-.007-3.065z" fill="#fff"/><path d="M1.297.034H59.39v18.654h-2.443V2.494H2.52v54.977h54.428V36.655h2.443V59.93H.076V.034h1.221z" fill="#FFCF10"/></svg>