<svg width="128" height="128" fill="none" xmlns="http://www.w3.org/2000/svg"><path d="M112.213 39.869H15.689v15.528L39.4 76.38c-1.679 3.568-2.728 7.555-2.728 11.751 0 11.331 6.925 21.194 16.787 25.181V128h20.984v-14.688c9.862-4.197 16.787-13.85 16.787-25.18 0-4.198-1.05-8.184-2.728-11.752l23.711-20.983V39.869zm-4.197 4.197v8.393h-88.13v-8.393h88.13zm-37.77 71.344v8.393h-12.59v-8.393h12.59zm-6.295-4.197a23.015 23.015 0 01-23.082-23.082A23.016 23.016 0 0163.95 65.05a23.016 23.016 0 0123.082 23.082 23.015 23.015 0 01-23.082 23.082zm0-50.36c-9.443 0-17.626 4.616-22.453 11.75L23.243 56.656h81.416L86.403 72.813c-4.826-7.134-13.01-11.96-22.452-11.96zM28.279 18.885c4.616 0 8.393-3.777 8.393-8.393 0-4.617-3.777-8.394-8.393-8.394-4.617 0-8.394 3.777-8.394 8.394 0 4.616 3.777 8.393 8.394 8.393zm0-12.59a4.209 4.209 0 014.196 4.197 4.21 4.21 0 01-4.196 4.197 4.21 4.21 0 01-4.197-4.197 4.209 4.209 0 014.197-4.197zm16.787 29.377c4.616 0 8.393-3.777 8.393-8.393 0-4.617-3.777-8.394-8.393-8.394-4.617 0-8.394 3.777-8.394 8.394 0 4.616 3.777 8.393 8.394 8.393zm0-12.59a4.209 4.209 0 014.196 4.197 4.209 4.209 0 01-4.196 4.196 4.209 4.209 0 01-4.197-4.196 4.209 4.209 0 014.197-4.197zm18.884-4.197c4.617 0 8.394-3.777 8.394-8.393 0-4.617-3.777-8.394-8.393-8.394-4.617 0-8.394 3.777-8.394 8.394 0 4.616 3.777 8.393 8.394 8.393zm0-12.59a4.209 4.209 0 014.197 4.197 4.21 4.21 0 01-4.196 4.197 4.21 4.21 0 01-4.197-4.197 4.209 4.209 0 014.197-4.197zm18.886 29.377c4.617 0 8.394-3.777 8.394-8.393 0-4.617-3.778-8.394-8.394-8.394s-8.393 3.777-8.393 8.394c0 4.616 3.777 8.393 8.393 8.393zm0-12.59a4.209 4.209 0 014.197 4.197 4.209 4.209 0 01-4.197 4.196 4.21 4.21 0 01-4.197-4.196 4.21 4.21 0 014.197-4.197zm14.689-6.295c4.616 0 8.393-3.777 8.393-8.394 0-4.616-3.777-8.393-8.393-8.393-4.617 0-8.394 3.777-8.394 8.393 0 4.617 3.777 8.394 8.394 8.394zm0-12.59a4.209 4.209 0 014.196 4.196 4.209 4.209 0 01-4.196 4.197 4.21 4.21 0 01-4.197-4.197 4.209 4.209 0 014.197-4.196z" fill="#FFCF10"/><path d="M66.637 96.59h-5.59V100h-5.274v-3.41h-3.568v-4.272h3.568v-1.336h-3.568v-4.271h3.568V74.406h9.95c1.921 0 3.609.346 5.062 1.037 1.453.692 2.578 1.682 3.375 2.971.809 1.277 1.213 2.736 1.213 4.377 0 2.531-.861 4.53-2.584 5.994-1.71 1.465-4.096 2.197-7.154 2.197h-4.588v1.336h5.59v4.272zm-5.59-9.88H65.6c2.953 0 4.43-1.294 4.43-3.884 0-1.23-.376-2.22-1.126-2.97-.75-.762-1.787-1.149-3.111-1.16h-4.746v8.015z" fill="#FFCF10"/></svg>