<svg width="128" height="128" fill="none" xmlns="http://www.w3.org/2000/svg"><g clip-path="url(#clip0_56_834)" fill="#FFCF10"><path d="M15.255 23.385c-2.64 0-5.07.998-6.702 2.72C6.92 27.828 6.1 30.15 6.1 32.515v63.459H3.065A3.048 3.048 0 000 99.033v8.142c0 6.7 5.495 12.195 12.195 12.195h103.61c6.7 0 12.195-5.495 12.195-12.195v-8.142a3.048 3.048 0 00-3.035-3.06h-3.06V32.516c0-5.012-4.124-9.13-9.136-9.13h-6.094a3.048 3.048 0 00-3.06 3.036 3.048 3.048 0 003.06 3.035h6.094c1.741 0 3.036 1.319 3.036 3.06v63.458H12.195v-63.46c0-1.01.33-1.745.786-2.226.456-.48 1.073-.833 2.274-.833h6.094a3.047 3.047 0 003.036-3.035 3.047 3.047 0 00-3.036-3.036h-6.094zM6.1 102.068h115.804v5.107c0 3.429-2.671 6.101-6.1 6.101H12.195c-3.429 0-6.094-2.672-6.094-6.101v-5.107z"/><path d="M42.429 81.263a3.048 3.048 0 000 6.097h43.145a3.047 3.047 0 000-6.097H42.43zM62.673 8.405L31.247 23.653c-2.337 1.147-2.254 4.506.137 5.535l8.612 3.655v24.712a3.048 3.048 0 001.53 2.63L62.47 72.334a3.047 3.047 0 003.06 0l20.968-12.148a3.047 3.047 0 001.506-2.63v-24.7l8.636-3.667c2.39-1.03 2.474-4.388.137-5.535L65.327 8.405c-1.052-.559-1.573-.52-2.654 0zM64 14.54l24.093 11.654C80.057 29.585 72.037 32.997 64 36.408c-8.023-3.405-16.047-6.814-24.07-10.213L64 14.54zM46.097 35.444l14.868 6.303v12.028a3.047 3.047 0 106.094 0v-12.04l14.85-6.291v20.355L64 66.191 46.097 55.799V35.444z"/></g><defs><clipPath id="clip0_56_834"><path fill="#fff" d="M0 0h128v128H0z"/></clipPath></defs></svg>