<svg width="128" height="128" fill="none" xmlns="http://www.w3.org/2000/svg"><g clip-path="url(#clip0_56_865)" fill="#FFCF10"><path d="M51.786 123.603c-11.725-2.443-22.473-8.305-30.778-16.611C12.702 98.687 6.84 88.183 4.397 76.214H0l3.42-5.13 3.664-5.13 3.42 5.13 3.42 5.13H9.527c2.198 10.504 7.572 20.03 14.9 27.358 7.573 7.329 16.855 12.703 27.36 14.901v5.13zm71.817-47.389c-2.443 11.97-8.305 22.473-16.611 30.778-8.305 8.306-18.809 14.168-30.778 16.611V128l-5.13-3.42-5.13-3.42 5.13-3.664 5.13-3.42v4.397c10.504-2.198 20.03-7.572 27.359-14.9 7.328-7.329 12.702-16.855 14.9-27.36h5.13zM51.786 9.527C41.282 11.725 32 17.099 24.427 24.427 17.1 32 11.725 41.282 9.527 51.787h-5.13c2.443-11.726 8.305-22.474 16.61-30.78 8.306-8.305 19.054-14.167 30.78-16.61V0l5.13 3.42 5.373 3.664-5.374 3.42-5.13 3.42V9.527zm24.428-5.13c11.97 2.443 22.473 8.305 30.778 16.61 8.306 8.306 14.168 19.054 16.611 30.78H128l-3.42 5.13-3.42 5.373-3.664-5.374-3.42-5.13h4.397c-2.198-10.504-7.572-19.786-14.9-27.359-7.329-7.328-16.855-12.702-27.36-14.9v-5.13zm-14.657 74.26V66.443H49.1a12.456 12.456 0 01-3.42 6.351c-2.198 2.199-5.374 3.664-8.794 3.664-3.42 0-6.35-1.465-8.793-3.664-2.199-2.198-3.42-5.374-3.42-8.794 0-3.42 1.221-6.595 3.42-8.794 2.442-2.198 5.374-3.664 8.794-3.664 3.42 0 6.595 1.466 8.793 3.664a12.456 12.456 0 013.42 6.351h12.458V49.344H51.542V24.672h24.916v24.672H66.443v12.213H78.9a12.456 12.456 0 013.42-6.35c2.198-2.2 5.374-3.665 8.794-3.665 3.42 0 6.595 1.466 8.793 3.664 2.199 2.199 3.665 5.374 3.665 8.794 0 3.42-1.466 6.596-3.665 8.794-2.198 2.199-5.374 3.664-8.793 3.664-3.42 0-6.596-1.465-8.794-3.664a12.456 12.456 0 01-3.42-6.351H66.443v12.214h10.015v24.916H51.542V78.657h10.015zM42.26 58.627c-1.466-1.222-3.176-2.2-5.374-2.2-1.955 0-3.909.978-5.13 2.2-1.466 1.465-2.199 3.419-2.199 5.373 0 2.199.733 3.909 2.199 5.374 1.221 1.222 3.175 2.199 5.13 2.199 2.198 0 3.908-.977 5.373-2.199 1.467-1.464 2.2-3.174 2.2-5.374 0-1.954-.733-3.908-2.198-5.374zm54.229 0c-1.466-1.222-3.42-2.2-5.374-2.2-2.199 0-3.909.978-5.374 2.2-1.222 1.465-2.199 3.419-2.199 5.373 0 2.199.977 3.909 2.198 5.374 1.466 1.222 3.176 2.199 5.375 2.199 1.954 0 3.908-.977 5.374-2.199 1.22-1.465 2.198-3.175 2.198-5.374 0-1.954-.977-3.908-2.198-5.374zm-24.916-14.17v-14.9H56.428v14.9h15.145zm0 54.23V83.541H56.428v15.145h15.145z"/></g><defs><clipPath id="clip0_56_865"><path fill="#fff" d="M0 0h128v128H0z"/></clipPath></defs></svg>