<svg version="1.0" xmlns="http://www.w3.org/2000/svg" width="326.667" height="326.667" viewBox="0 0 245 245"><path d="M107.1 8.1c-6.3 1.9-10.7 5.7-40.4 35L36.9 72.5l.1 4.6c0 4.9 2.2 8.3 6.6 9.9 5.5 2.1 7.3.7 37-29.1 19.2-19.2 29.9-29.2 32-29.9 2.5-.9 4-.8 6.6.3 1.9.9 19.4 17.6 42.6 40.9l39.2 39.4V167h21.2l-.4-29.7-.3-29.8-3.3-7c-3.1-6.5-6-9.6-44.5-47.7C146.3 25.7 131 11.4 128 9.9c-5.1-2.6-15.3-3.5-20.9-1.8z"/><path d="M97.2 121.5c-5.5 2.4-9.8 6.3-12.8 11.7-2.8 5-2.9 6-3.2 19.5l-.4 14.3h20l.4-12c.2-9.4.6-12.3 1.8-13 2.3-1.5 34.3-1.3 35.8.2.8.8 1.2 5.2 1.2 13V167h21.3l-.5-13.8c-.6-15.2-1.8-19.5-7.1-25.1-1.8-1.8-5.4-4.4-8.2-5.7-4.7-2.3-6-2.4-25-2.4-15 .1-20.8.4-23.3 1.5zM60 190.3c-1.3.7-3 2.4-3.8 3.7-1.7 3.3-.9 9.8 1.6 12.2 3.8 3.8 15.5 3.6 19.2-.4 2-2.2 2.7-8.7 1.4-12.3-1.6-4-12.9-6-18.4-3.2zm11.8 4.6c.8.5 1.2 2.2 1 4.2-.4 4-4 5.9-8.5 4.3-3.5-1.2-4.5-6.1-1.7-8.1 2-1.5 7.2-1.7 9.2-.4zm14.6-4.6c-.3.8-.4 5.2-.2 9.8l.3 8.4 5.5.3c11.5.7 16-2 16-9.4 0-5.6-.7-7.2-4.1-8.9-3.7-2-16.8-2.1-17.5-.2zm14 4.3c1 .4 1.6 1.8 1.6 4 0 3.8-2.1 5.4-6.9 5.4-3 0-3.1-.1-3.1-5v-5h3.4c1.9 0 4.1.3 5 .6zm14.8 4.1l.3 9.8 9.8.3 9.7.3v-2.6c0-2.4-.2-2.5-6.4-2.5-3.6 0-6.8-.5-7.1-1-.4-.6 1.5-1 4.9-1 5.3 0 5.6-.1 5.6-2.4s-.4-2.5-5.2-2.8c-3-.2-5.3-.8-5.6-1.6-.3-.9 1.5-1.2 6.7-1.2 6.9 0 7.1-.1 7.1-2.5V189h-20.1l.3 9.7zm26.8.4v10l2.8-.3c2.4-.3 2.7-.7 3.2-5.1l.5-4.9 2.3 3.1c2.9 3.9 4 3.9 7.4-.1l2.7-3.3.1 5.2c0 5.2.1 5.3 3 5.3h3v-20h-3c-2.3 0-3.5.9-6 4.5-1.7 2.5-3.4 4.5-3.8 4.5-.4 0-2-2-3.5-4.5-2.3-3.7-3.4-4.5-5.8-4.5H142v10.1zm32.2-.4l.3 9.8 9.8.3 9.7.3v-2.6c0-2.4-.2-2.5-6.4-2.5-3.6 0-6.8-.5-7.1-1-.4-.6 1.5-1 4.9-1 5.3 0 5.6-.1 5.6-2.4s-.4-2.5-5.2-2.8c-3-.2-5.3-.8-5.6-1.6-.3-.9 1.5-1.2 6.7-1.2 6.9 0 7.1-.1 7.1-2.5V189h-20.1l.3 9.7zm-89 28.4c.5 1.4 77.7 1.7 78 .3.2-.5-16.4-1-39-1.2-28.3-.1-39.3.1-39 .9z"/></svg>