<svg width="81" height="80" fill="none" xmlns="http://www.w3.org/2000/svg"><g clip-path="url(#clip0_109_114)" fill="#fff"><path d="M78.887 25.176c-2.775-2.741-7.29-2.741-10.066 0l-7.137 7.058V13.66c0-1.878-.74-3.643-2.085-4.971l-6.71-6.63A7.114 7.114 0 0047.857 0H7.12C3.196 0 .003 3.154.003 7.031V72.97C.003 76.846 3.196 80 7.12 80h47.447c3.924 0 7.117-3.154 7.117-7.031v-20.84l17.203-17.01a6.967 6.967 0 000-9.943zM47.45 4.688c.448 0 1.312-.077 2.084.686l6.71 6.63c.753.743.695 1.558.695 2.059H47.45V4.687zm9.49 68.28c0 1.293-1.065 2.344-2.373 2.344H7.12c-1.308 0-2.372-1.05-2.372-2.343V7.03c0-1.292 1.064-2.343 2.372-2.343h35.585v11.718c0 1.295 1.062 2.344 2.373 2.344h11.861v18.175l-7 6.921-3.352 3.313c-.26.258-.457.571-.574.916l-3.355 9.944a2.324 2.324 0 00.573 2.399 2.393 2.393 0 002.428.566l10.065-3.315a2.36 2.36 0 00.927-.566l.288-.284v16.15zm-5.321-24.151l3.355 3.314-1.282 1.266-5.032 1.657 1.677-4.971 1.282-1.266zm6.71-.001L54.972 45.5l11.404-11.276 3.355 3.315-11.404 11.276zm17.202-17.01l-2.445 2.418-3.355-3.314 2.446-2.42a2.396 2.396 0 013.355 0c.925.915.93 2.396 0 3.316z"/><path d="M45.077 23.438H11.865c-1.31 0-2.373 1.049-2.373 2.343 0 1.295 1.062 2.344 2.372 2.344h33.213c1.31 0 2.373-1.05 2.373-2.344 0-1.294-1.063-2.343-2.373-2.343zm-9.489 9.375H11.864c-1.31 0-2.372 1.049-2.372 2.343 0 1.295 1.062 2.344 2.372 2.344h23.724c1.31 0 2.372-1.05 2.372-2.344 0-1.294-1.062-2.343-2.372-2.343zm0 9.375H11.864c-1.31 0-2.372 1.049-2.372 2.343 0 1.295 1.062 2.344 2.372 2.344h23.724c1.31 0 2.372-1.05 2.372-2.344 0-1.294-1.062-2.343-2.372-2.343zm0 9.375H11.864c-1.31 0-2.372 1.049-2.372 2.343 0 1.295 1.062 2.344 2.372 2.344h23.724c1.31 0 2.372-1.05 2.372-2.344 0-1.294-1.062-2.343-2.372-2.343zm9.489 14.375H30.843c-1.31 0-2.372 1.049-2.372 2.343 0 1.295 1.062 2.344 2.372 2.344h14.234c1.31 0 2.373-1.05 2.373-2.344 0-1.294-1.063-2.344-2.373-2.344z"/></g><defs><clipPath id="clip0_109_114"><path fill="#fff" d="M0 0h80.976v80H0z"/></clipPath></defs></svg>