<svg width="85" height="86" fill="none" xmlns="http://www.w3.org/2000/svg"><path d="M77.175 5.375H39.833c-4.315 0-7.825 3.552-7.825 7.917v24.236l-6.934-3.488a15.04 15.04 0 00-.712-.335 11.994 11.994 0 003.29-8.269c0-6.597-5.304-11.965-11.825-11.965-6.521 0-11.826 5.368-11.826 11.965 0 3.585 1.569 6.806 4.046 9A15.975 15.975 0 000 48.375v8.096c0 3.485 2.237 6.452 5.335 7.506v14.084c0 1.39 1.114 2.52 2.49 2.52h16.003c1.376 0 2.49-1.13 2.49-2.52V49.752l7.973 4.033c3.052 1.543 7.19.623 9.062-2.89h8.928l-9.454 26.304c-.47 1.308.197 2.754 1.49 3.23 1.477.543 2.79-.395 3.19-1.507l10.074-28.027h1.746L69.503 78.93c.386 1.063 1.69 2.055 3.196 1.495a2.527 2.527 0 001.479-3.233l-9.546-26.297h12.543c4.231 0 7.825-3.454 7.825-7.917V13.292c0-4.464-3.594-7.917-7.825-7.917zM8.982 25.436c0-3.82 3.07-6.926 6.845-6.926s6.845 3.107 6.845 6.926-3.07 6.925-6.845 6.925-6.845-3.106-6.845-6.925zM39.097 48.2a1.862 1.862 0 01-1.043 1.136 1.845 1.845 0 01-1.535-.058c-4.735-2.397-11.578-5.855-11.578-5.855-1.652-.836-3.603.381-3.603 2.253v29.865H10.315V61.868c0-1.39-1.115-2.52-2.49-2.52-1.569 0-2.845-1.29-2.845-2.877v-8.096c0-6.156 4.955-10.974 10.847-10.974h2.2c1.67 0 3.336.397 4.826 1.15 0 0 12.352 6.214 15.498 7.8.674.338.994 1.133.746 1.85zm40.922-5.222c0 .77-.294 1.492-.832 2.035a2.846 2.846 0 01-2.012.843h-33.28l-.013-.041 6.18-12.505a2.534 2.534 0 00-1.113-3.38 2.477 2.477 0 00-3.341 1.126L40.337 41.72a3553.7 3553.7 0 00-3.349-1.686V13.292c0-1.587 1.276-2.878 2.845-2.878h37.342c.75 0 1.484.307 2.013.844.537.542.831 1.264.831 2.034v29.686z" fill="#fff"/><path d="M71.84 16.17H45.168c-1.375 0-2.49 1.128-2.49 2.52 0 1.39 1.115 2.519 2.49 2.519h26.674c1.374 0 2.49-1.128 2.49-2.52 0-1.391-1.115-2.52-2.49-2.52zm.001 9.445H58.505c-1.375 0-2.49 1.128-2.49 2.52 0 1.391 1.115 2.52 2.49 2.52H71.84c1.375 0 2.49-1.129 2.49-2.52 0-1.392-1.114-2.52-2.49-2.52zm0 9.446H58.505c-1.375 0-2.49 1.128-2.49 2.52 0 1.39 1.115 2.52 2.49 2.52H71.84c1.375 0 2.49-1.13 2.49-2.52 0-1.392-1.114-2.52-2.49-2.52z" fill="#fff"/></svg>