<svg width="79" height="80" fill="none" xmlns="http://www.w3.org/2000/svg"><g clip-path="url(#clip0_109_103)" fill="#fff"><path d="M73.036 0H47.37c-1.278 0-2.314 1.05-2.314 2.344v10.774c0 .925.536 1.763 1.37 2.14a2.291 2.291 0 002.488-.393 3.122 3.122 0 012.236-.813c1.635.066 2.965 1.414 3.027 3.07a3.205 3.205 0 01-.881 2.346 3.129 3.129 0 01-4.382.166 2.292 2.292 0 00-2.488-.394 2.345 2.345 0 00-1.37 2.14v10.65c0 1.295 1.036 2.344 2.314 2.344h6.923a8.038 8.038 0 00-.108 1.67c.16 4.086 3.447 7.409 7.483 7.563a7.672 7.672 0 005.701-2.2 7.87 7.87 0 002.387-5.681 8 8 0 00-.115-1.352h7.046c1.278 0 2.314-1.05 2.314-2.344V6.04C79 2.71 76.325 0 73.036 0zm1.335 29.688h-8.325c-.913 0-1.74.543-2.113 1.387s-.22 1.83.388 2.52a3.21 3.21 0 01.805 2.132c0 .877-.344 1.696-.968 2.305a3.118 3.118 0 01-2.316.892c-1.636-.062-2.968-1.409-3.032-3.065a3.213 3.213 0 01.802-2.264 2.367 2.367 0 00.389-2.52 2.314 2.314 0 00-2.114-1.387h-8.203V25.02c.437.077.883.116 1.334.116a7.677 7.677 0 005.611-2.417 7.881 7.881 0 002.172-5.773c-.152-4.088-3.433-7.416-7.47-7.578a7.73 7.73 0 00-1.647.11v-4.79h23.352c.736 0 1.335.606 1.335 1.351v23.648z"/><path d="M60.947 45.625h-10.64c-.913 0-1.74.543-2.113 1.388-.372.843-.22 1.83.389 2.52.52.586.805 1.344.805 2.131 0 .878-.344 1.697-.969 2.306a3.12 3.12 0 01-2.315.892c-1.636-.063-2.968-1.41-3.032-3.066a3.213 3.213 0 01.802-2.264 2.367 2.367 0 00.388-2.52 2.314 2.314 0 00-2.113-1.387h-8.204v-4.667c.539.095 1.09.132 1.648.11 4.036-.162 7.318-3.49 7.47-7.578a7.882 7.882 0 00-2.172-5.773 7.677 7.677 0 00-5.61-2.418c-.451 0-.898.04-1.335.117V18.28c0-1.294-1.037-2.343-2.315-2.343H5.964C2.675 15.938 0 18.646 0 21.977V73.96C0 77.29 2.675 80 5.964 80h51.334c3.288 0 5.964-2.71 5.964-6.04V47.97c0-1.295-1.037-2.344-2.315-2.344zM4.63 21.977c0-.746.599-1.352 1.335-1.352h23.352v8.43c0 .925.537 1.763 1.37 2.14a2.291 2.291 0 002.489-.393 3.13 3.13 0 014.382.166 3.2 3.2 0 01.88 2.345c-.061 1.656-1.39 3.005-3.026 3.07a3.126 3.126 0 01-2.236-.812 2.292 2.292 0 00-2.488-.394 2.345 2.345 0 00-1.37 2.14v8.308h-4.61a8.01 8.01 0 00.115-1.352 7.869 7.869 0 00-2.387-5.682 7.665 7.665 0 00-5.701-2.199c-4.036.154-7.323 3.477-7.483 7.564a8.073 8.073 0 00.108 1.67H4.63v-23.65zm0 51.984V50.313h8.325c.913 0 1.74-.544 2.113-1.388.373-.844.22-1.83-.388-2.52a3.212 3.212 0 01-.803-2.264c.065-1.656 1.397-3.002 3.033-3.065a3.131 3.131 0 012.315.892c.625.609.969 1.428.969 2.305a3.22 3.22 0 01-.805 2.133 2.367 2.367 0 00-.389 2.52 2.314 2.314 0 002.114 1.386h8.203v4.667a7.754 7.754 0 00-1.648-.109c-4.036.162-7.317 3.49-7.47 7.578a7.882 7.882 0 002.173 5.773 7.677 7.677 0 005.61 2.417c.451 0 .897-.04 1.335-.116v4.79H5.964a1.345 1.345 0 01-1.335-1.351zm54.004 0c0 .745-.599 1.352-1.335 1.352H33.945v-8.431c0-.925-.536-1.763-1.37-2.14a2.292 2.292 0 00-2.488.393 3.13 3.13 0 01-4.382-.165 3.2 3.2 0 01-.88-2.345c.06-1.657 1.39-3.005 3.026-3.07a3.129 3.129 0 012.236.812c.68.616 1.654.77 2.488.393a2.346 2.346 0 001.37-2.14v-8.307h4.608a8.065 8.065 0 00-.107 1.669c.16 4.087 3.446 7.41 7.483 7.564a7.667 7.667 0 005.7-2.2 7.87 7.87 0 002.388-5.682 7.99 7.99 0 00-.115-1.351h4.73V73.96z"/></g><defs><clipPath id="clip0_109_103"><path fill="#fff" d="M0 0h79v80H0z"/></clipPath></defs></svg>