<svg width="79" height="80" fill="none" xmlns="http://www.w3.org/2000/svg"><g clip-path="url(#clip0_109_106)" fill="#fff"><path d="M72.52 17.969v-7.813C72.52 4.556 68.02 0 62.49 0H10.03C4.5 0 0 4.556 0 10.156v67.5C0 78.951 1.036 80 2.314 80h52.461c1.279 0 2.315-1.05 2.315-2.344V20.312h13.115c1.278 0 2.314-1.049 2.314-2.343zM52.46 75.312H4.63V10.156c0-3.015 2.423-5.469 5.4-5.469h44.017a10.186 10.186 0 00-1.585 5.47v65.156zm15.43-59.687h-10.8v-5.469c0-3.015 2.422-5.469 5.4-5.469s5.4 2.454 5.4 5.47v5.468z"/><path d="M45.518 9.375H11.572c-1.278 0-2.314 1.05-2.314 2.344v34.375c0 1.294 1.036 2.343 2.314 2.343h33.946c1.278 0 2.314-1.049 2.314-2.343V11.719c0-1.295-1.036-2.344-2.314-2.344zM43.203 43.75H13.887V14.062h29.316V43.75z"/><path d="M21.111 37.121a2.294 2.294 0 002.201.177l13.887-6.25a2.345 2.345 0 001.375-2.142c0-.926-.539-1.765-1.375-2.141l-13.886-6.25a2.289 2.289 0 00-2.202.176 2.351 2.351 0 00-1.053 1.965v12.5a2.35 2.35 0 001.053 1.965zm3.576-10.858l5.873 2.643-5.873 2.644v-5.287zM45.518 56.25H11.572c-1.278 0-2.314 1.05-2.314 2.344 0 1.294 1.036 2.343 2.314 2.343h33.946c1.278 0 2.314-1.049 2.314-2.343 0-1.295-1.036-2.344-2.314-2.344zm0 9.375H11.572c-1.278 0-2.314 1.05-2.314 2.344 0 1.294 1.036 2.344 2.314 2.344h33.946c1.278 0 2.314-1.05 2.314-2.344 0-1.295-1.036-2.344-2.314-2.344zM73.6 25.313h-3.086c-2.978 0-5.4 2.453-5.4 5.468v34.375c0 .281.05.56.147.823l4.629 12.5A2.316 2.316 0 0072.057 80c.965 0 1.828-.606 2.167-1.52l4.63-12.5a2.39 2.39 0 00.147-.824V30.781c0-3.015-2.423-5.468-5.4-5.468zm-3.857 37.5V39.374h4.629v23.438h-4.63zM70.514 30H73.6c.425 0 .772.35.772.781v3.907h-4.63V30.78c0-.43.347-.781.772-.781zm.254 37.5h2.578l-1.289 3.481-1.289-3.481z"/></g><defs><clipPath id="clip0_109_106"><path fill="#fff" d="M0 0h79v80H0z"/></clipPath></defs></svg>