<svg width="87" height="86" fill="none" xmlns="http://www.w3.org/2000/svg"><path d="M80.206 61.458h-2.532v-3.161c0-7.484-6.16-13.572-13.73-13.572H46.618v-11.69h7.596c3.745 0 6.793-3.012 6.793-6.715V10.018c0-3.702-3.047-6.715-6.793-6.715H33.92c-3.746 0-6.793 3.013-6.793 6.715V26.32c0 3.703 3.047 6.716 6.793 6.716h7.596v11.69H23.169c-7.57 0-13.73 6.088-13.73 13.572v3.16H6.795C3.048 61.458 0 64.47 0 68.174v7.809c0 3.702 3.048 6.715 6.794 6.715h10.393c3.746 0 6.794-3.013 6.794-6.715v-7.809c0-3.703-3.048-6.715-6.794-6.715h-2.645v-3.161c0-4.703 3.87-8.529 8.627-8.529h18.347v11.69H38.87c-3.746 0-6.793 3.012-6.793 6.715v7.809c0 3.702 3.047 6.715 6.793 6.715h10.394c3.745 0 6.793-3.013 6.793-6.715v-7.809c0-3.703-3.047-6.715-6.793-6.715h-2.646v-11.69h17.326c4.757 0 8.628 3.826 8.628 8.529v3.16h-2.76c-3.745 0-6.793 3.013-6.793 6.716v7.809c0 3.702 3.048 6.715 6.794 6.715h10.393c3.746 0 6.794-3.013 6.794-6.715v-7.809c0-3.703-3.047-6.715-6.794-6.715zM17.187 66.5c.933 0 1.691.75 1.691 1.672v7.809c0 .921-.758 1.671-1.69 1.671H6.793c-.933 0-1.692-.75-1.692-1.671v-7.809c0-.922.76-1.672 1.692-1.672h10.393zm32.077 0c.932 0 1.691.75 1.691 1.672v7.809c0 .921-.759 1.671-1.691 1.671H38.87c-.932 0-1.691-.75-1.691-1.671v-7.809c0-.922.759-1.672 1.691-1.672h10.394zM33.92 27.991c-.932 0-1.69-.75-1.69-1.671V10.018c0-.921.758-1.671 1.69-1.671h20.293c.933 0 1.692.75 1.692 1.671V26.32c0 .922-.76 1.672-1.692 1.672H33.92zm47.978 47.99c0 .922-.76 1.672-1.692 1.672H69.813c-.933 0-1.691-.75-1.691-1.671v-7.808c0-.922.758-1.672 1.69-1.672h10.394c.933 0 1.692.75 1.692 1.672v7.808z" fill="#fff"/></svg>