<svg width="81" height="82" fill="none" xmlns="http://www.w3.org/2000/svg"><g clip-path="url(#clip0_107_73)" fill="#fff"><path d="M78.627 38.598h-1.44v-.171c0-6-3.33-10.819-7.67-13.29a11.44 11.44 0 003.858-8.582c0-6.29-5.056-11.409-11.27-11.409-6.214 0-11.27 5.118-11.27 11.409a11.44 11.44 0 003.857 8.581 15.233 15.233 0 00-7.669 13.29v.172H26.026a12.997 12.997 0 00-7.767-2.573c-7.264 0-13.175 5.983-13.175 13.338 0 4.333 2.052 8.188 5.223 10.626A19.175 19.175 0 000 77.025v2.573C0 80.924 1.062 82 2.373 82h33.044c1.31 0 2.372-1.076 2.372-2.402v-2.573a19.3 19.3 0 00-.743-5.318h39.208v2.744c0 1.327 1.062 2.403 2.373 2.403 1.31 0 2.373-1.076 2.373-2.403V41c0-1.327-1.062-2.402-2.373-2.402zM55.582 16.555c0-3.641 2.926-6.604 6.523-6.604 3.597 0 6.524 2.963 6.524 6.604 0 3.64-2.927 6.604-6.524 6.604-3.596 0-6.523-2.963-6.523-6.604zm-3.813 21.872c0-5.87 4.721-10.463 10.336-10.463 5.6 0 10.336 4.576 10.336 10.463v.17H51.769v-.17zm-33.51 2.402c4.648 0 8.43 3.828 8.43 8.534 0 4.705-3.782 8.534-8.43 8.534s-8.43-3.829-8.43-8.534c0-4.706 3.782-8.534 8.43-8.534zm14.784 36.366H4.746v-.17c0-7.898 6.347-14.324 14.149-14.324 7.801 0 14.148 6.426 14.148 14.324v.17zm-6.351-17.593a13.379 13.379 0 004.743-10.239 13.38 13.38 0 00-1.394-5.96h46.213v23.5H34.92a19.099 19.099 0 00-8.228-7.301z"/><path d="M8.728 31.823h34.314c1.89 0 3.025-2.14 1.974-3.735l-4.685-7.114V8.835C40.331 3.993 36.472 0 31.603 0H8.729C3.885 0 0 3.968 0 8.835v14.153c0 4.856 3.871 8.835 8.728 8.835zM4.746 8.835c0-2.199 1.748-4.03 3.982-4.03h22.876c2.211 0 3.981 1.801 3.981 4.03v12.866c0 .474.139.938.399 1.333l2.624 3.984H8.728c-2.212 0-3.982-1.802-3.982-4.03V8.834z"/><path d="M12.54 13.811h15.25c1.31 0 2.373-1.076 2.373-2.402 0-1.327-1.062-2.403-2.372-2.403H12.539c-1.31 0-2.373 1.076-2.373 2.403 0 1.326 1.063 2.402 2.373 2.402zm0 9.006h7.625c1.31 0 2.373-1.076 2.373-2.402 0-1.327-1.063-2.402-2.373-2.402H12.54c-1.31 0-2.373 1.075-2.373 2.402 0 1.326 1.063 2.402 2.373 2.402z"/></g><defs><clipPath id="clip0_107_73"><path fill="#fff" d="M0 0h81v82H0z"/></clipPath></defs></svg>