<svg width="32" height="32" fill="none" xmlns="http://www.w3.org/2000/svg"><g clip-path="url(#clip0_39_1361)"><path d="M31.774 17.344l-1.433-2.096c-.425-3.668-1.473-6.383-3.192-8.275-2.013-2.216-4.889-3.292-8.792-3.292-.55 0-1.13.022-1.724.065C9.981 4.232 6.42 11.895 5.01 15.878l-.211.091C1.566 17.39-.004 18.97 0 20.802c.001.691.407 1.43 1.317 2.394.66.7 1.562 1.482 2.538 2.2 1.149.845 4.082 2.82 6.505 2.917.108.004.224.006.345.006 3.814 0 15.887-2.25 21.054-9.49a1.297 1.297 0 00.015-1.485zm-6.501 1.522c-.308.207-.622.403-.942.591-.696.41-1.415.781-2.15 1.119-1.396.642-2.857 1.169-4.358 1.51-1.366.309-2.82.5-4.212.26a12.72 12.72 0 01-3.852-1.333c-1.19-.641-2.41-1.448-3.275-2.506.54.238 1.085.463 1.634.677a32.833 32.833 0 011.254-3.59c.479-1.136 1.039-2.227 1.854-3.16.959-1.098 2.148-2.014 3.402-2.75 1.054-.62 2.182-1.106 3.38-1.364a9.74 9.74 0 00-1.377.63c-1.32.737-2.508 1.73-3.51 2.86-.44.497-.905 1.041-1.213 1.633-.34.655-.56 1.358-.742 2.072-.356 1.416-.565 2.874-.702 4.327-.014.152-.009.139.141.18l.285.077c.172.05.346.092.52.134.361.087.724.162 1.088.237 2.187.468 5.099-.07 6.901-.47 1.822-.405 3.63-.87 5.447-1.291l.057-.014a29.362 29.362 0 01.875-.188c0 .077-.45.322-.505.36z" fill="#FFCF10"/></g><defs><clipPath id="clip0_39_1361"><path fill="#fff" d="M0 0h32v32H0z"/></clipPath></defs></svg>