<svg width="32" height="32" fill="none" xmlns="http://www.w3.org/2000/svg"><g clip-path="url(#clip0_39_1347)"><path d="M31.314 1.196a2.835 2.835 0 00-3.952-.674L19.3 6.235a2.827 2.827 0 00-.881 3.586l-2.2 1.564a.651.651 0 00-.274.528v6.411l-1.492 1.371-5.311-2.814L.071 32l23.542-7.452-7.945-4.21 1.363-1.252a.644.644 0 00.21-.477v-6.361l1.975-1.404c.964.809 2.38.91 3.456.15l8.062-5.714a2.835 2.835 0 00.673-3.952l-.093-.132z" fill="#FFCF10"/></g><defs><clipPath id="clip0_39_1347"><path fill="#fff" d="M0 0h32v32H0z"/></clipPath></defs></svg>