<svg width="32" height="32" fill="none" xmlns="http://www.w3.org/2000/svg"><path d="M16 0C7.164 0 0 7.164 0 16s7.164 16 16 16a2.663 2.663 0 002.667-2.667c0-.693-.258-1.315-.694-1.786a2.642 2.642 0 01-.666-1.77 2.663 2.663 0 012.666-2.666h3.138c4.907 0 8.889-3.982 8.889-8.889C32 6.364 24.836 0 16 0zM6.222 16a2.663 2.663 0 01-2.666-2.667 2.663 2.663 0 012.666-2.666 2.663 2.663 0 012.667 2.666A2.663 2.663 0 016.222 16zm5.334-7.111a2.663 2.663 0 01-2.667-2.667 2.663 2.663 0 012.667-2.666 2.663 2.663 0 012.666 2.666 2.663 2.663 0 01-2.666 2.667zm8.888 0a2.663 2.663 0 01-2.666-2.667 2.663 2.663 0 012.666-2.666 2.663 2.663 0 012.667 2.666 2.663 2.663 0 01-2.667 2.667zM25.778 16a2.663 2.663 0 01-2.667-2.667 2.663 2.663 0 012.667-2.666 2.663 2.663 0 012.666 2.666A2.663 2.663 0 0125.778 16z" fill="#FFCF10"/></svg>