<svg width="32" height="32" fill="none" xmlns="http://www.w3.org/2000/svg"><path d="M25.99 27.747a1.25 1.25 0 01-1.249-1.249V25.25h1.249c1.99 0 2.497-.676 2.497-.676v1.925a1.25 1.25 0 01-1.248 1.249h-1.25zm-21.229 0a1.25 1.25 0 01-1.248-1.249v-1.925s.507.676 2.497.676h1.25v1.25a1.25 1.25 0 01-1.249 1.248h-1.25zM32 14.635a2.889 2.889 0 00-2.888-2.888 2.881 2.881 0 00-2.698 1.88l-1.37 3.069c-.102-.064-4.244-1.365-8.967-1.365-4.722 0-9.028 1.307-9.133 1.372l-1.297-2.878a2.879 2.879 0 00-2.759-2.077A2.888 2.888 0 000 14.636c0 1.328.902 2.434 2.122 2.773l.534 4.594C3.22 23.952 6.01 24 6.01 24h19.98s2.79-.05 3.354-2l.534-4.595A2.88 2.88 0 0032 14.636z" fill="#FFCF10"/><path d="M2.888 10.248c1.888 0 3.583 1.247 4.164 3.045l.631 1.405c1.223-.441 5.619-.866 8.396-.866 2.7 0 7.034.395 8.233.832l.718-1.61a4.402 4.402 0 014.083-2.806c.132 0 .258.028.39.039v-.024a6.01 6.01 0 00-6.01-6.01H8.51a6.01 6.01 0 00-6.01 6.01l.001.024c.13-.01.256-.039.388-.039z" fill="#FFCF10"/></svg>