<?xml version="1.0" standalone="yes"?>
<svg xmlns="http://www.w3.org/2000/svg" width="1561" height="608">
<path style="fill:#ffffff; stroke:none;" d="M0 0L0 320L1 320C4.99332 309.63 5.12477 298.929 6.16975 288C8.26616 266.074 9.7987 246.204 8.9892 224C8.58771 212.988 3.06612 192.175 12.3935 183.434C19.134 177.116 24.3674 185.61 31 185.409C34.8599 185.292 37.9017 182.15 42 182.023C57.4974 181.544 73.377 184 89 184C124.791 184 159.92 179.899 196 179.015C233.76 178.089 271.398 180.549 309 180.996C343.829 181.41 379.117 176.869 414 176.015C557.087 172.509 699.887 167.492 843 163.985C860.311 163.561 877.657 161.084 895 161.001C963.13 160.672 1032.07 160.741 1100 156.09C1110.39 155.378 1127.05 153.166 1137 155.769C1147.08 158.405 1149.99 166.574 1161.94 161.736C1169.9 158.514 1168.79 133.787 1170.08 126C1171.94 114.745 1168.87 102.37 1168.09 91C1166.78 71.8858 1167.09 50.959 1169.58 32C1170.89 21.9634 1169.29 7.88434 1178 1L1147 0L1078 0L837 0L0 0z"/>
<path style="fill:#010101; stroke:none;" d="M1242 598C1261.14 605.134 1282.83 575.34 1296 563.089C1329.53 531.914 1365.49 503.497 1400.06 473.594C1414.18 461.383 1431.6 452.115 1443.73 438C1448.42 432.537 1455.2 428.46 1459.4 422.715C1461.24 420.198 1461.02 416.88 1462.86 414.375C1467.69 407.798 1475.7 400.916 1482 395.679C1489.5 389.452 1495.25 380.986 1503 391C1512.57 386.438 1512.72 375.305 1519.19 368.004C1529.83 355.988 1564.17 351.974 1560.85 332.105C1559.81 325.9 1548.68 320.164 1545.4 314C1538.38 300.817 1539.62 285.92 1529.44 274.279C1524.92 269.113 1517.47 271.873 1512.1 268.976C1506.24 265.811 1500.3 258.892 1495 254.612C1487.31 248.407 1478.54 243.566 1471.09 237.135C1444.95 214.56 1422.93 188.836 1398 165.039C1387.84 155.346 1374.57 149.984 1364 140.714C1333.96 114.364 1306.1 85.2363 1273 62.5486C1253.05 48.8754 1231.45 38.5104 1213 22.5748C1205.26 15.8869 1196.65 1.87616 1186 0.213745C1168.34 -2.54297 1169.31 25.0223 1169.01 37C1168.57 54.967 1167.25 72.9706 1168.04 91C1168.68 105.533 1171.15 118.549 1168.61 133C1166.53 144.885 1170.68 161.184 1155 163.039C1146.87 164.001 1144.1 156.666 1137 155.407C1126.36 153.519 1111.97 155.746 1101 156.015L892 161.015C701.015 165.694 509.825 172.604 319 180.961C306.922 181.49 295.021 179.309 283 179.015C254.382 178.313 225.627 178.863 197 179.001C164.16 179.159 131.351 183.193 99 183.985C79.6626 184.459 60.1583 181.23 41 182.019C37.3366 182.17 34.4509 184.771 31 184.906C24.9528 185.143 20.9148 178.856 14.1049 181.742C9.06676 183.877 7.85043 191.16 7.52083 196C6.62651 209.134 9.01091 221.864 9.91049 235C11.4996 258.206 7.56615 281.087 4.71528 304C3.97722 309.932 0.492566 316.26 0.422068 322C0.315076 330.712 2.67766 341.212 3.71451 350C5.41405 364.404 4.04807 375.579 12.9653 387.941C18.1851 395.178 26.3391 387.182 30.3079 391.461C33.5865 394.997 31.46 400.476 36.1049 404.291C49.0003 414.883 66.3707 418.551 77.5363 432.001C82.2076 437.628 87.9741 443.537 91.4329 450C93.329 453.543 93.6852 458.843 98.0941 460.353C102.55 461.88 107.326 457.814 112 458.366C116.848 458.938 121.094 461.961 126 462.243C144.731 463.319 166.319 456.52 185 454.285C217.312 450.421 251.45 453 284 453C351.065 453 417.976 450.673 485 451.001C529.569 451.219 575.131 453.928 620 451.961C643.238 450.942 666.675 445.687 690 444.09C703.177 443.187 716.709 445.311 730 444.985C761.645 444.21 793.229 443 825 443C860.63 443 896.485 440.478 932 442.91C991.942 447.015 1052.36 434.074 1112 434.802C1123.79 434.947 1137.09 436.964 1149 435.83C1154.67 435.291 1164.75 433.106 1169.4 437.738C1174.73 443.062 1169.44 461.21 1168.98 468C1167.33 492.063 1162.66 523.998 1172.88 546.941C1175.22 552.203 1182.33 551.062 1185.68 556.044C1192.55 566.266 1200.58 575.66 1207.3 586C1211.15 591.924 1213.37 599.061 1219.02 603.61C1226.85 609.929 1241.17 610.399 1242 598z"/>
<path style="fill:#ffffff; stroke:none;" d="M1188 0L1188 1C1204.92 9.77753 1217.67 28.8235 1234 39.5911C1248.26 48.9969 1264.39 56 1278 66.4136C1308.4 89.6617 1335.05 116.769 1364 141.572C1373.65 149.836 1385.55 154.752 1395 163.174C1409.36 175.971 1420.34 191.639 1434 204.985C1457.46 227.908 1484.16 248.896 1510.38 268.411C1514.95 271.815 1522 269.626 1526.94 272.857C1546.55 285.67 1534.47 321.122 1561 329L1561 0L1188 0M1193 40C1184.01 70.1458 1188.22 107.685 1193.54 138C1195.76 150.66 1195.18 163.471 1181 168C1181 173.213 1182.28 181.654 1177.7 185.397C1173.08 189.162 1163.37 186.681 1158 186.17C1144.75 184.908 1131.21 186.396 1118 187.039C1075.62 189.099 1033.55 190 991 190C967.422 190 942.4 187.523 919 190.285C896.267 192.969 873.767 191.573 851 191.015C828.714 190.469 806.233 191.433 784 189.91C770.612 188.994 755.228 185.37 742 186.108C711.434 187.814 680.722 191.615 650 192.961C623.619 194.116 597.259 190.889 571 192.039C548.306 193.033 525.749 197.428 503 197.985C478.185 198.593 452.797 199.047 428 197.961C416.547 197.459 404.427 194.671 393 195.274C380.163 195.952 367.116 199.386 354 199.961C322.133 201.356 289.901 200 258 200C205.148 200 153.567 202.405 101 206.09C91.8424 206.731 82.0036 207.082 73 208.805C67.2521 209.905 60.875 213.268 55 212.772C46.946 212.091 39.3415 206.396 33 202L25 362C91.7628 362 158.261 352.029 225 352.029C315.033 352.029 406.156 352.031 496 353.019C533.318 353.429 570.59 355.441 608 354.996C633.942 354.688 660.069 352.175 686 351.039C734.623 348.91 783.342 350.256 832 348.985C914.666 346.827 997.146 342 1080 342C1102.35 342 1124.72 343 1147 343C1158.08 343 1172.25 340.624 1183 343.318C1201.65 347.994 1196 366.105 1196 379C1196 414.36 1190.21 448.651 1191.01 484C1191.27 495.357 1191.26 506.904 1191.08 518.17C1191.04 520.734 1189.98 528.364 1194.19 528.364C1198.28 528.365 1205.57 519.745 1209 517.271C1223.22 507.026 1236.88 495.982 1251 485.605C1309.46 442.629 1367.96 400.642 1422 351.83C1437.25 338.06 1453.63 325.551 1469 311.834C1472.69 308.541 1483.55 301.77 1482.96 296.09C1482.46 291.218 1470.68 281.59 1467.21 277.83C1462.98 273.256 1460.57 267.458 1455.96 263.105C1443.14 250.986 1427.24 241.62 1414 229.826C1375.69 195.691 1342.19 156.723 1304 122.17C1289.68 109.209 1274.01 98.9462 1259 86.9962C1239.11 71.1613 1217.82 47.8552 1193 40M1468 379C1489.59 372.601 1501.86 349.686 1509.88 331C1513.81 321.843 1519.18 314.904 1514 305L1491.9 323.676L1479.14 336L1475.35 353L1468 379M0 324L0 608L1226 608L1226 607C1213.21 601.376 1208.18 585.746 1200.27 575C1195.28 568.231 1190.23 559.319 1184.37 553.434C1181.33 550.387 1176.48 551.545 1173.86 547.852C1170.62 543.296 1170.49 535.38 1169.84 530C1168.47 518.596 1167 507.511 1167 496C1167.01 480.991 1169.41 465.928 1170.83 451C1171.36 445.401 1172.73 437.444 1165.98 435.823C1158.56 434.041 1151.43 435.992 1144 435.992C1133.35 435.992 1122.47 434.808 1112 434.606C1057.08 433.551 1002.29 443 947 443C874.368 443 801.619 443.206 729 444.985C715.968 445.305 702.96 443.472 690 444.039C666.261 445.079 642.609 450.925 619 451.961C570.408 454.092 521.385 451 473 451C426.289 451 379.671 454.158 333 453.015C304.371 452.313 275.638 453 247 453C226.3 453 204.541 451.829 184 454.285C165.568 456.49 144.938 462.758 126.424 462.093C121.761 461.926 117.589 459.039 113 458.329C108.216 457.589 102.341 461.754 98.0941 459.868C93.5262 457.839 93.154 451.81 90.8565 448C86.7652 441.216 80.6282 433.607 74.9097 428.129C63.8513 417.536 48.7477 413.478 37.0432 404.291C32.0575 400.377 34.0362 393.951 30.3827 390.661C27.5306 388.093 22.5085 392.407 19.0039 391.663C13.663 390.529 8.74987 381.587 6.63735 376.91C-0.304889 361.542 9.54426 337.967 0 324M1527.33 333.667L1527.67 334.333L1527.33 333.667M1560 339C1555.8 353.009 1531.24 355.433 1521.04 365.105C1512.97 372.764 1512.4 384.234 1503 391C1497.19 379.937 1489.73 388.046 1483 393.946C1476.25 399.865 1468.34 406.493 1462.86 413.594C1460.74 416.341 1461.01 419.998 1458.68 422.715C1454.77 427.28 1449.43 430.491 1445.43 435.015C1431.97 450.206 1414.34 460.075 1399.19 473.594C1365.7 503.482 1330.71 531.556 1297 561.286C1286.56 570.491 1276.45 580.076 1266 589.286C1261.95 592.857 1257.61 598.925 1252 599.996C1248.7 600.627 1245.14 598.838 1242 598C1241.41 602.373 1239.84 604.811 1236 607L1236 608L1561 608L1561 418L1561 364L1560 339M1418 433C1447.22 416.113 1451.79 381.099 1458 351C1449.58 354.903 1431.78 367.167 1428.4 376C1425.29 384.134 1427.02 393.594 1425.11 402C1422.64 412.91 1418.01 421.461 1418 433M200 370C204.574 377.476 218.872 373.328 226 372C215.508 366.289 210.646 369.743 200 370M237 371L237 372C242.216 374.283 247.263 373.22 250 368L237 371M1023 369C1025.76 383.918 1012.71 386.321 1003 394.329C993.346 402.291 991 408.969 991 421L1053 416C1053.11 402.469 1059.59 389.092 1071.96 382.845C1076.63 380.487 1087.32 367.635 1089.92 381.015C1091.13 387.25 1083.73 389.906 1080.17 393.224C1074.07 398.908 1066.88 407.5 1066 416C1088.99 415.985 1111.86 412 1135 412C1149.24 412 1159.91 410.773 1172 419C1176.27 404.571 1173 385.055 1173 370C1142.08 370 1110.89 370.313 1080 368.961C1062.67 368.202 1039.79 364.036 1023 369M922 422L959 423.17L970.397 421.821L974.229 410L986.174 391L1006 371C991.652 371 977.244 371.034 963 372.715C959.287 373.153 954.668 372.161 951.174 373.603C947.044 375.309 944.035 380.871 940.985 384C929.895 395.378 922.698 405.752 922 422M173 374C176.17 377.096 178.277 376.228 181 373L173 374M154 374L160 376L160 374L154 374M853 421L853 422L888 421.015L904.772 419.682L910.333 408L924 374C913.9 374 899.419 371.893 890.133 376.653C887.025 378.245 885.401 381.897 882.892 384.246C875.489 391.177 865.439 398.733 859.652 407.004C856.518 411.483 856.819 417.001 853 421z"/>
<path style="fill:#010101; stroke:none;" d="M1137.98 375.812C1128.32 375.646 1117.51 385.932 1113.67 394C1111.31 398.976 1110.39 408.667 1118.02 408.898C1131.64 409.311 1126.61 397.029 1132.56 390.495C1135.31 387.484 1140.7 386.738 1142.39 382.741C1143.88 379.238 1141.71 375.876 1137.98 375.812z"/>
<path style="fill:#ffffff; stroke:none;" d="M588 424C592.522 426.574 597.692 431.605 602.209 433.383C605.588 434.713 610.432 433.052 614 433.004C624.61 432.861 635.488 431.77 646 430.271C650.004 429.7 655.369 429.717 658.348 426.567C661.613 423.115 662.236 417.176 664.374 413C669.234 403.507 684.948 386.027 696.999 387.257C703.272 387.897 707.532 393.708 702.847 398.907C697.609 404.719 665.278 424.546 688 426.829C700.113 428.047 712.826 427.005 725 427C729.852 426.998 737.477 427.572 741.776 424.973C745.728 422.584 748.093 415.737 750.721 412C755.948 404.567 762.681 397.044 770 391.61C773.638 388.908 780.063 384.675 784.852 386.618C789.997 388.706 787.083 395.007 784.656 397.985C779.022 404.899 770.488 408.479 764.434 414.76C762.095 417.187 761.422 421.607 764.514 423.821C768.147 426.423 775.754 425.007 780 425C794.619 424.977 809.311 424 824 424C828.402 424 838.036 425.767 841.377 422.258C844.12 419.377 840.209 414.787 839 412L851.746 398L870 377C862.565 374.802 853.722 376 846 376C827.977 376 809.979 377.173 792 377.961C758.171 379.442 723.894 379.816 690 378.985C670.751 378.514 645.664 374.969 627.044 381.533C621.518 383.482 619.677 391.77 615.826 395.985C606.174 406.554 593.393 409.751 588 424M488 390C476.588 387.047 464.701 388 453 388C448.022 388 441.679 386.973 437 388.934C419.906 396.101 408.536 411.217 396.61 423.848C392.826 427.855 387.177 425.868 385.086 420.985C383.643 417.612 386.384 414.755 387.949 412C392.816 403.432 402.112 398.813 406 390C375.934 390 346.264 386.07 321.004 404.634C313.561 410.104 309.952 418.969 304.446 425.952C302.586 428.311 299.904 430.812 297.044 428.458C283.948 417.676 309.855 398.889 314 390C299.048 390 283.739 386.988 269 390.924C256.745 394.196 245.691 403.248 235 409.811C228.699 413.679 209.349 424.573 216.029 434.682C219.347 439.704 235.606 437 241 437C265.689 437 290.277 436 315 436C373.793 436 432.345 433 491 433L543 433C549.623 433 559.601 434.596 565.682 431.411C569.505 429.409 571.138 417.07 573.901 413C582.088 400.942 596.656 395.601 605 384C593.603 384 582.357 385.707 571 385.985C556.601 386.338 541.027 385.06 527 388.927C518.901 391.159 511.632 396.723 504 400.208C498.32 402.801 493.542 404.439 489.97 410.001C486.011 416.164 487.621 435.423 475.04 426.347C457.755 413.879 483.273 400.13 488 390M126 440C129.631 427.211 137.929 419.558 145.424 409.04C147.526 406.091 153.053 402.887 152.994 398.979C152.861 390.176 135.148 393.011 130 393.924C117.888 396.07 99.376 413.107 104.742 426.996C107.847 435.031 118.376 438.516 126 440M141 439L182 439.91L196.436 437.258L200.101 427L209.465 411.015L225 394C211.602 394 193.52 391.498 181 396.966C171.054 401.31 164.001 410.257 156.791 417.83C150.581 424.353 142.82 429.587 141 439M1408 394C1397.25 400.801 1377.42 412.376 1372 424C1390.83 432.488 1367.31 465.05 1365 478C1390.13 464.964 1397.17 442.652 1402.88 417C1404.32 410.572 1410.38 400.17 1408 394M76 396C76.5407 403.152 82.7718 407.367 89 410C90.7252 406.896 95.7387 401.018 94.338 397.318C92.5277 392.535 79.7243 395.309 76 396M1286 545C1314.41 534.07 1311.63 497.001 1322.32 474C1325.18 467.861 1337.97 456.551 1339.85 470.005C1340.72 476.281 1335.54 482.868 1334.21 489C1332.82 495.396 1329.66 501.545 1329 508C1336.77 505.759 1347.74 499.191 1351.67 491.83C1354.37 486.761 1348.66 482.358 1349.78 477C1353.13 461.037 1359.58 445.691 1364 430C1355.01 432.645 1347.51 439.913 1340 445.29C1318.72 460.521 1300.33 479.314 1279 494.352C1270.65 500.235 1251.26 510.258 1247.39 520.089C1245.91 523.838 1247.25 528.841 1245.97 533C1242.16 545.391 1236.51 557.173 1234.09 570C1233.29 574.286 1231.54 583.99 1238.05 585.003C1243.79 585.895 1250.55 577.582 1253.96 574C1268.62 558.609 1266.28 535.832 1273.23 517C1275.1 511.93 1277.3 498.024 1284.01 497.546C1290 497.12 1291.95 504.399 1291.54 509C1290.46 520.924 1282.42 532.846 1286 545M1413.33 436.667L1413.67 437.333L1413.33 436.667M1218 562L1222 540C1208.54 543.779 1210.85 553.497 1218 562z"/>
</svg>
