<svg width="580" height="400" xmlns="http://www.w3.org/2000/svg">
 <!-- Created with Method Draw - http://github.com/duopixel/Method-Draw/ -->

 <g>
  <title>background</title>
  <rect fill="#fff" id="canvas_background" height="402" width="582" y="-1" x="-1"/>
  <g display="none" overflow="visible" y="0" x="0" height="100%" width="100%" id="canvasGrid">
   <rect fill="url(#gridpattern)" stroke-width="0" y="0" x="0" height="100%" width="100%"/>
  </g>
 </g>
 <g>
  <title>Layer 1</title>
  <g stroke="null" id="svg_5">
   <path stroke="null" id="svg_4" d="m425.710057,61.482244c-5.077466,-4.284166 -13.052473,-4.897152 -21.298279,-1.603194l-0.01354,0c-8.672312,3.462361 -245.485341,104.530959 -255.125757,108.660194c-1.753418,0.60625 -17.067057,6.291527 -15.489657,18.955414c1.408151,11.417707 13.715929,16.146456 15.218859,16.692081l60.205211,20.511456c3.994274,13.229721 18.718926,62.039575 21.975274,72.467074c2.030987,6.500346 5.341495,15.041734 11.143346,16.799859c5.091006,1.953472 10.154933,0.168403 13.431591,-2.391319l36.808246,-33.970204l59.419896,46.108675l1.414921,0.842014c4.034893,1.778333 7.900538,2.6675 11.590163,2.6675c2.850151,0 5.585213,-0.532153 8.198416,-1.596458c8.902491,-3.6375 12.463487,-12.077846 12.835835,-13.034373l44.383826,-229.546429c2.707982,-12.259721 -1.056113,-18.497359 -4.698349,-21.562289zm-163.406406,171.420533l-20.309865,53.888882l-20.309865,-67.361102l155.708967,-114.513874l-115.089236,127.986095z"/>
  </g>
 </g>
</svg>