<svg width="48" height="48" fill="none" xmlns="http://www.w3.org/2000/svg"><path d="M38.208 7.728C34.848 2.976 29.664.336 24 .336c-5.76 0-10.896 2.736-14.16 7.44-3.216 4.704-3.936 10.656-1.872 15.888.288.624.576 1.344 1.008 2.016l12.768 20.736c.48.816 1.344 1.296 2.304 1.296.96 0 1.776-.48 2.304-1.296l12.816-20.88c.432-.768.816-1.44 1.056-2.112 1.968-5.184 1.2-11.088-2.016-15.696zM24 25.776c-4.848 0-8.784-3.984-8.784-8.784 0-4.8 3.936-8.832 8.784-8.832 4.848 0 8.784 3.984 8.784 8.784 0 4.8-3.936 8.832-8.784 8.832z" fill="#000"/><circle cx="24" cy="16.8" fill="#000" r="4"/></svg>