<svg width="42" height="42" fill="none" xmlns="http://www.w3.org/2000/svg"><path fill-rule="evenodd" clip-rule="evenodd" d="M31.696 26.014a17.447 17.447 0 01-5.682 5.682l8.133 8.133a4.018 4.018 0 105.682-5.682l-8.133-8.133zM16.928.994C8.134.994.994 8.134.994 16.928s7.14 15.934 15.934 15.934 15.934-7.14 15.934-15.934S25.722.994 16.928.994zm0 5.48c5.77 0 10.454 4.684 10.454 10.454 0 5.77-4.684 10.454-10.454 10.454-5.77 0-10.454-4.684-10.454-10.454 0-5.77 4.684-10.454 10.454-10.454z" fill="#fff"/></svg>