<?xml version="1.0" standalone="no"?>
<!DOCTYPE svg PUBLIC "-//W3C//DTD SVG 20010904//EN"
 "http://www.w3.org/TR/2001/REC-SVG-20010904/DTD/svg10.dtd">
<svg version="1.0" xmlns="http://www.w3.org/2000/svg"
 width="485.000000pt" height="485.000000pt" viewBox="0 0 485.000000 485.000000"
 preserveAspectRatio="xMidYMid meet">
<metadata>
Created by potrace 1.14, written by Peter Selinger 2001-2017
</metadata>
<g transform="translate(0.000000,485.000000) scale(0.100000,-0.100000)"
fill="#000000" stroke="none">
<path d="M271 4334 c-115 -81 11 -288 151 -248 71 21 95 118 47 188 -46 68
-144 97 -198 60z"/>
<path d="M2530 4290 c-44 -19 -60 -41 -60 -81 0 -41 30 -85 72 -108 36 -19 61
-66 48 -90 -13 -25 -28 -29 -129 -41 -100 -11 -152 -25 -215 -57 -59 -30 -137
-107 -163 -161 l-18 -40 -80 41 c-298 149 -526 176 -632 74 -75 -71 -78 -145
-18 -382 45 -175 53 -281 31 -390 -20 -96 -65 -197 -109 -244 -94 -99 -247
-93 -365 13 -22 20 -44 36 -51 36 -32 0 -20 -141 21 -227 12 -24 43 -69 71
-99 95 -104 290 -171 475 -162 79 4 99 9 164 41 97 47 166 121 249 262 74 127
121 178 193 211 176 80 380 0 462 -181 22 -49 28 -77 30 -155 4 -110 -14 -175
-67 -241 l-32 -40 -37 58 c-50 79 -127 148 -208 186 -60 29 -77 32 -157 32
-81 0 -97 -3 -155 -32 -89 -44 -119 -78 -200 -232 -85 -160 -111 -196 -164
-223 -59 -30 -120 -14 -213 56 -170 128 -363 93 -414 -75 -15 -49 -12 -164 6
-205 11 -26 12 -41 4 -62 -6 -14 -10 -54 -10 -87 0 -147 83 -258 246 -330 270
-118 390 -251 425 -471 10 -63 10 -68 -20 -126 -54 -110 -35 -167 84 -247 137
-93 279 -151 466 -191 205 -44 420 -14 556 76 59 39 96 83 126 151 27 60 22
177 -10 239 -43 84 -141 148 -276 179 -38 9 -90 27 -115 40 -51 25 -119 94
-146 145 -28 54 -45 160 -45 284 l0 118 37 -32 c87 -77 208 -95 328 -50 228
87 209 83 460 90 212 5 233 7 272 28 51 27 87 78 104 147 25 106 79 151 171
143 73 -7 127 -49 146 -113 23 -79 12 -225 -21 -296 -49 -103 -126 -160 -238
-178 -111 -18 -217 6 -454 105 -144 59 -279 58 -405 -6 -186 -94 -214 -323
-50 -408 39 -20 54 -22 115 -17 208 17 283 17 356 0 98 -22 190 -67 245 -120
39 -37 45 -48 42 -76 -4 -42 -50 -75 -116 -84 -78 -11 -79 -12 -41 -51 98
-102 262 -194 381 -214 142 -24 267 5 420 96 100 61 157 123 208 228 39 79 68
206 55 245 -8 26 7 37 70 55 156 45 277 166 327 331 42 134 24 367 -41 539
-10 26 -8 32 28 71 44 48 69 93 97 175 15 43 19 84 19 190 0 139 -7 174 -57
288 -16 36 -20 72 -23 210 -2 95 -10 206 -20 257 -64 354 -289 695 -591 897
-222 149 -344 173 -344 68 0 -30 10 -51 48 -100 88 -117 93 -125 90 -150 -4
-38 -48 -38 -122 -1 -33 18 -141 92 -240 165 -235 177 -378 247 -586 290 -101
20 -258 29 -290 16z"/>
<path d="M1724 4231 c-52 -24 -74 -55 -74 -105 0 -55 32 -100 92 -130 180 -90
341 91 186 207 -67 49 -136 59 -204 28z"/>
<path d="M901 3529 c-49 -29 -69 -57 -87 -118 -59 -197 111 -429 279 -381 52
14 96 53 123 108 27 52 25 180 -3 242 -27 60 -68 107 -122 142 -57 36 -138 39
-190 7z"/>
<path d="M381 2674 c-42 -53 -13 -157 53 -188 48 -22 63 -20 97 13 33 33 37
71 15 125 -31 75 -124 103 -165 50z"/>
<path d="M1104 1086 c-126 -55 -51 -228 99 -229 65 -1 95 15 113 60 12 27 13
42 4 68 -14 43 -68 91 -117 104 -48 14 -61 13 -99 -3z"/>
</g>
</svg>
