<svg version="1.0" xmlns="http://www.w3.org/2000/svg" width="734.667" height="734.667" viewBox="0 0 551 551"><path d="M275.5 92.2c-1.6.5-3.7 1.1-4.5 1.3-3.4.9-53.5 14.7-65.5 18-7.1 2-16.1 4.5-20 5.5-4.4 1.2-7.7 2.7-8.8 4.1-1 1.3-4.6 5.4-8 9.3-3.4 3.8-8.4 9.5-11.1 12.5-2.7 3.1-6 6.7-7.2 8.1-1.3 1.4-3.1 3.4-4.1 4.6-1 1.2-4.4 5-7.5 8.5-3.1 3.5-6.5 7.3-7.5 8.5-4.4 5.1-14.9 17-16.5 18.6-1.1 1.1-3.6 10-6.8 23.5-2.8 12-6.3 27.2-7.9 33.8-1.6 6.6-4.4 18.4-6.2 26.2L90.6 289l18.5 49.2 18.4 49.1 5 3.9c2.7 2.2 5.9 4.7 7 5.6 1.1 1 8.3 6.6 16 12.7 7.7 6 16.5 13 19.6 15.5 18.4 14.8 19.5 15.5 24.9 16.3 1.9.3 8.9 1.7 15.5 3.1 6.6 1.5 13.4 2.9 15 3.2 1.7.3 5.7 1.1 9 1.9 3.3.8 10.3 2.3 15.5 3.4 5.2 1.1 14.7 3.1 21 4.5 16.2 3.5 17 3.7 21.5 4.2 3.7.5 8.3-1.6 56.5-25.8l52.5-26.4 12.7-23c12.9-23 16.1-29.4 23.6-45.9 2.2-5 5.8-12.8 8-17.5 2.1-4.7 5.4-11.7 7.1-15.6l3.3-7.1-1.7-8.9c-.9-4.9-1.8-9.8-2-10.9-.1-1.1-.7-4.5-1.4-7.5-1.1-5.2-2.5-12.8-12.2-65-2.2-11.8-4.6-22-5.3-22.5-.7-.6-3.9-3.3-7.2-6.2-3.2-2.8-6.9-6-8-7-9.2-7.7-14.1-11.9-30.4-25.8-10.2-8.6-19.3-16.5-20.2-17.4-.9-.9-2.3-2.1-3-2.6-.7-.6-3.6-2.9-6.4-5.2-4.6-3.8-8.2-5.2-43.2-16.8-21-6.9-39-12.7-39.9-12.9-1-.2-3.1.1-4.8.6z"/></svg>