<svg width="360" height="304" fill="none" xmlns="http://www.w3.org/2000/svg"><path fill-rule="evenodd" clip-rule="evenodd" d="M131.25 29.97v67.061c0 6.369 2.941 11.664 6.812 16.992 3.162 4.356 8.653 7.553 14.56 11.016 5.907 3.472 12.308 7.322 15.938 14.209 3.795 7.213 5.902 16.914 1.889 25.078-3.896 7.933-12.306 10.887-20.376 13.506v9.478l59.898.161v-7.749c-8.906-1.361-16.458-7.384-20.2-14.927-4.167-8.401-2.004-18.468 1.933-25.928 3.611-6.838 9.971-10.656 15.835-14.062 5.867-3.407 11.332-6.511 14.458-10.796 3.874-5.313 6.753-10.62 6.753-16.992V29.97h-97.5zm48.779 15.015c20.667 0 37.471 16.878 37.471 37.544 0 20.667-16.804 37.471-37.471 37.471-20.666 0-37.544-16.804-37.544-37.47 0-20.667 16.878-37.545 37.544-37.545z" fill="#000"/><path fill-rule="evenodd" clip-rule="evenodd" d="M180.029 52.515c-16.613 0-30.014 13.401-30.014 30.014 0 16.614 13.401 29.942 30.014 29.942a29.844 29.844 0 0029.942-29.942c-.002-16.613-13.329-30.014-29.942-30.014zm-.073 14.135l5.186 9.375 9.946 1.92-6.973 8.012 1.319 10.43-9.507-4.424-9.126 4.526 1.113-10.752-6.973-7.631 10.181-2.212 4.834-9.244zm-29.321 128.375h58.741c8.456 0 15.147 6.577 18.882 15.001h-96.504c3.735-8.424 10.425-15.001 18.881-15.001zM93.39 37.51a3.751 3.751 0 00-3.384 3.765v37.427a3.75 3.75 0 001.67 3.15l30.733 20.507c-.309-1.706-.511-3.476-.511-5.332v-4.043L97.48 76.709V44.981h24.418v-7.47H93.774a3.758 3.758 0 00-.383 0h-.002zm144.712 0v7.47h24.418v31.73l-24.418 16.288v4.029c0 1.857-.199 3.625-.51 5.332l30.747-20.507a3.752 3.752 0 001.655-3.15V41.275a3.757 3.757 0 00-1.098-2.666 3.755 3.755 0 00-2.666-1.099h-28.128z" fill="#000"/><rect x="95.667" y="211.5" width="168.667" height="90.333" rx="6.5" fill="#fff" stroke="#000" stroke-width="3"/><rect x="1.5" y="258.167" width="357" height="43.667" rx="6.5" fill="#fff" stroke="#000" stroke-width="3"/></svg>