<svg version="1.0" xmlns="http://www.w3.org/2000/svg" width="42" height="42" viewBox="0 0 512 512"><path d="M57.2 1.1C29.3 5.8 5.3 30.3 1 58.6c-.7 4.7-1 68.7-.8 201.9l.3 195 2.8 8c7.9 22.3 22.9 37.3 45.2 45.2l8 2.8h399l8-2.8c23.1-8.2 39-24.8 46.2-48.2 1.7-5.7 1.8-14.8 1.8-205v-199l-2.8-8c-7.9-22.3-22.9-37.3-45.2-45.2l-8-2.8L259 .4C148.1.3 60.2.6 57.2 1.1zm352.4 133c3.3 2 6.4 7.2 6.4 10.7 0 2.6-49.8 222.9-51.2 226.5-2.4 6.2-11.6 10.7-18.2 8.8-1.9-.5-20.8-12.6-41.9-27-21.2-14.4-38.8-26.1-39.2-26.1-.3 0-8.8 7.8-18.8 17.3-23.1 21.9-22.8 21.7-28.8 21.7-4.2 0-5.5-.5-8.4-3.3-3-2.9-4.7-7.2-17.1-43.7-7.5-22.3-14.2-41-14.8-41.7-.6-.6-18-5.7-38.6-11.3-33.8-9.1-37.8-10.4-40.2-13.1-1.8-1.8-2.8-4-2.8-5.9 0-7.1-4-5.5 124-51.6 65.2-23.4 129.1-46.4 142-51.1 12.9-4.7 26.7-9.6 30.5-10.9 7.8-2.6 12-2.5 17.1.7z"/><path d="M273.6 222.5c-44.6 25.6-81.3 47.1-81.8 47.7-.4.7-.8 2.5-.8 3.9 0 3.4 21.5 66.2 22.8 66.7 1.3.4 1.6-1.4 4.2-24.3 1.2-9.9 2.3-19 2.6-20.2.3-1.5 23.6-21.2 69.2-58.4 37.8-30.9 69-56.7 69.4-57.3 1.4-2 .3-4.1-2.2-4.3-1.7-.2-27.8 14.3-83.4 46.2z"/></svg>