<svg version="1.0" xmlns="http://www.w3.org/2000/svg" width="42" height="42" viewBox="0 0 512 512"><path d="M41.2 2c-9.7 2.6-17.3 7-24.8 14.4C8.9 24 4.5 31.5 2 41.6 0 49.2 0 53.1 0 256s0 206.8 2 214.4c2.5 10.1 6.9 17.6 14.4 25.2 7.6 7.5 15.1 11.9 25.2 14.4 7.6 2 11.5 2 214.4 2s206.8 0 214.4-2c10.1-2.5 17.6-6.9 25.2-14.4 7.5-7.6 11.9-15.1 14.4-25.2 2-7.6 2-11.5 2-214.4s0-206.8-2-214.4c-2.6-10.3-6.9-17.7-14.9-25.6-7.9-7.7-14.2-11.4-24.7-14-7.6-2-11.7-2-214.8-1.9C54.6.1 48.3.2 41.2 2zm286.2 79.5c3.7 40.9 37.7 75 78 78.3l8.1.7.3 31.4.2 31.4-9.2-.6c-25.4-1.7-50.1-9.8-71-23.3L327 195v67.3c0 73.9-.3 78.9-6 95.7-24.9 74.5-115 103-177.5 56.3-63.4-47.4-61.4-143.1 4-187.3 22-14.9 51.7-22.5 74.9-19.4l4.6.7v63.5l-3.7-.9c-6.1-1.4-19.5-1-25.4.7-34.6 10.2-49.2 50-29.3 80 8 12 20.7 20 36 22.4 20.4 3.3 43.4-8.3 53.1-26.6 6.6-12.5 6.3-4.7 6.3-145.6V74h62.7l.7 7.5z"/></svg>