<svg width="32" height="32" fill="none" xmlns="http://www.w3.org/2000/svg"><path d="M16.286.571C7.62.571.57 7.621.57 16.286v6.51c0 1.61 1.41 2.918 3.143 2.918h1.572a1.571 1.571 0 001.571-1.571V16.06a1.571 1.571 0 00-1.571-1.572H3.859c.873-6.08 6.106-10.774 12.427-10.774 6.32 0 11.553 4.694 12.426 10.775h-1.426a1.571 1.571 0 00-1.572 1.572v9.653a3.146 3.146 0 01-3.143 3.143h-3.143v-1.571h-6.285V32h9.428a6.292 6.292 0 006.286-6.286c1.733 0 3.143-1.309 3.143-2.918v-6.51C32 7.62 24.95.57 16.286.57z" fill="url(#paint0_linear_5853_138)"/><defs><linearGradient id="paint0_linear_5853_138" x1="-6.238" y1="-5.19" x2="55.047" y2="50.333" gradientUnits="userSpaceOnUse"><stop offset=".37" stop-color="#FCB045"/><stop offset="1" stop-color="#FD1D1D"/></linearGradient></defs></svg>