<svg width="36" height="32" fill="none" xmlns="http://www.w3.org/2000/svg"><path d="M34.125 11.063a17.45 17.45 0 00-3.75-5.563A17.45 17.45 0 0018 .375 17.45 17.45 0 005.625 5.5 17.45 17.45 0 00.5 17.875a17.468 17.468 0 006.246 13.402l.066.055c.227.188.512.293.805.293h20.77c.293 0 .578-.105.804-.293l.067-.055A17.477 17.477 0 0035.5 17.875c0-2.363-.465-4.652-1.375-6.813zm-6.383 17.593H8.258a14.496 14.496 0 01-4.79-10.781c0-3.883 1.512-7.531 4.259-10.273A14.435 14.435 0 0118 3.344c3.883 0 7.531 1.511 10.273 4.258a14.435 14.435 0 014.258 10.273c0 4.125-1.738 8.027-4.789 10.781zm-5.387-16.191a.314.314 0 00-.44 0l-3.302 3.3a2.182 2.182 0 00-2.588 1.277A2.185 2.185 0 0017.21 19.9a2.186 2.186 0 002.952-1.456c.1-.37.1-.762 0-1.133l3.3-3.3a.314.314 0 000-.442l-1.105-1.105zM17.142 8.5h1.718c.172 0 .313-.14.313-.313V5.063a.313.313 0 00-.313-.313h-1.718a.313.313 0 00-.313.313v3.125c0 .171.14.312.313.312zm10.156 8.516v1.718c0 .172.14.313.312.313h3.125c.172 0 .313-.14.313-.313v-1.718a.314.314 0 00-.313-.313H27.61a.313.313 0 00-.312.313zm.496-7.703l-1.215-1.215a.314.314 0 00-.441 0l-2.211 2.21a.313.313 0 000 .442l1.215 1.215c.12.12.32.12.441 0l2.211-2.211a.314.314 0 000-.441zM9.879 8.098a.314.314 0 00-.441 0L8.223 9.312a.314.314 0 000 .442l2.21 2.21c.122.122.32.122.442 0l1.215-1.214a.314.314 0 000-.441L9.879 8.098zm-1.645 8.605H5.11a.313.313 0 00-.312.313v1.718c0 .172.14.313.312.313h3.125c.172 0 .313-.14.313-.313v-1.718a.313.313 0 00-.313-.313z" fill="url(#paint0_linear_5853_328)"/><defs><linearGradient id="paint0_linear_5853_328" x1="-7.084" y1="-5.354" x2="54.145" y2="56.774" gradientUnits="userSpaceOnUse"><stop offset=".37" stop-color="#FCB045"/><stop offset="1" stop-color="#FD1D1D"/></linearGradient></defs></svg>