<svg width="40" height="40" fill="none" xmlns="http://www.w3.org/2000/svg"><path d="M25.833 23.071c0 3.333-4.166 5.833-4.166 8.333h-3.334c0-2.5-4.166-5-4.166-8.333A5.84 5.84 0 0120 17.238a5.84 5.84 0 015.833 5.833zm-4.166 10h-3.334v2.5h3.334v-2.5zm10-10.833c0 2.8-.984 5.35-2.634 7.367L31.4 31.97a14.961 14.961 0 00-1.667-21.133l-2.366 2.367a11.654 11.654 0 014.3 9.033zm-5-13.334L20 2.238v5a15 15 0 00-15 15c0 3.716 1.367 7.117 3.6 9.733l2.367-2.366a11.564 11.564 0 01-2.634-7.367c0-6.433 5.234-11.667 11.667-11.667v5l6.667-6.667z" fill="url(#paint0_linear_6351_156)"/><defs><linearGradient id="paint0_linear_6351_156" x1="-1.5" y1="-3.873" x2="62.48" y2="48.297" gradientUnits="userSpaceOnUse"><stop offset=".37" stop-color="#FCB045"/><stop offset="1" stop-color="#FD1D1D"/></linearGradient></defs></svg>