<svg width="38" height="38" fill="none" xmlns="http://www.w3.org/2000/svg"><g filter="url(#filter0_d_5853_157)"><path d="M24.833 21.071c0 3.333-4.166 5.833-4.166 8.333h-3.334c0-2.5-4.166-5-4.166-8.333A5.84 5.84 0 0119 15.238a5.84 5.84 0 015.833 5.833zm-4.166 10h-3.334v2.5h3.334v-2.5zm10-10.833c0 2.8-.984 5.35-2.634 7.367L30.4 29.97a14.961 14.961 0 00-1.667-21.133l-2.366 2.367a11.654 11.654 0 014.3 9.033zm-5-13.334L19 .238v5a15 15 0 00-15 15c0 3.716 1.367 7.117 3.6 9.733l2.367-2.366a11.564 11.564 0 01-2.634-7.367C7.333 13.805 12.567 8.57 19 8.57v5l6.667-6.667z" fill="url(#paint0_linear_5853_157)"/></g><defs><linearGradient id="paint0_linear_5853_157" x1="-2.5" y1="-5.873" x2="61.48" y2="46.297" gradientUnits="userSpaceOnUse"><stop offset=".37" stop-color="#FCB045"/><stop offset="1" stop-color="#FD1D1D"/></linearGradient><filter id="filter0_d_5853_157" x="0" y=".238" width="38.001" height="41.334" filterUnits="userSpaceOnUse" color-interpolation-filters="sRGB"><feFlood flood-opacity="0" result="BackgroundImageFix"/><feColorMatrix in="SourceAlpha" values="0 0 0 0 0 0 0 0 0 0 0 0 0 0 0 0 0 0 127 0" result="hardAlpha"/><feOffset dy="4"/><feGaussianBlur stdDeviation="2"/><feComposite in2="hardAlpha" operator="out"/><feColorMatrix values="0 0 0 0 0 0 0 0 0 0 0 0 0 0 0 0 0 0 0.25 0"/><feBlend in2="BackgroundImageFix" result="effect1_dropShadow_5853_157"/><feBlend in="SourceGraphic" in2="effect1_dropShadow_5853_157" result="shape"/></filter></defs></svg>