<svg width="40" height="40" fill="none" xmlns="http://www.w3.org/2000/svg"><path d="M27.651 12.348a3.75 3.75 0 00-5.302 0l-.581.58 1.767 1.768.581-.58a1.25 1.25 0 011.768 1.767L21.768 20l1.767 1.767 4.116-4.116a3.75 3.75 0 000-5.303z" fill="url(#paint0_linear_5853_596)"/><path d="M15.884 25.884a1.25 1.25 0 01-1.768-1.768L18.233 20l-1.768-1.768-4.116 4.117a3.75 3.75 0 105.302 5.302l.582-.58-1.768-1.767-.581.58z" fill="url(#paint1_linear_5853_596)"/><path d="M17.651 12.349a3.75 3.75 0 00-5.301 5.301l.58.581 1.767-1.767-.58-.581a1.25 1.25 0 011.768-1.768L20 18.233l1.767-1.768-4.116-4.116z" fill="url(#paint2_linear_5853_596)"/><path d="M27.651 22.349l-.58-.581-1.767 1.767.58.581a1.25 1.25 0 01-1.768 1.768L20 21.768l-1.768 1.767 4.117 4.116a3.75 3.75 0 005.302-5.302z" fill="url(#paint3_linear_5853_596)"/><path d="M20 38.75a1.25 1.25 0 01-.63-.17l-15-8.75a1.25 1.25 0 01-.62-1.08v-17.5a1.25 1.25 0 01.62-1.08l15-8.75a1.25 1.25 0 011.26 0l15 8.75-1.26 2.16L20 3.947l-13.75 8.02v16.065L20 36.054l13.75-8.022V18.75h2.5v10a1.25 1.25 0 01-.62 1.08l-15 8.75a1.25 1.25 0 01-.63.17z" fill="url(#paint4_linear_5853_596)"/><defs><linearGradient id="paint0_linear_5853_596" x1="20.255" y1="9.322" x2="38.459" y2="20.271" gradientUnits="userSpaceOnUse"><stop offset=".37" stop-color="#FCB045"/><stop offset="1" stop-color="#FD1D1D"/></linearGradient><linearGradient id="paint1_linear_5853_596" x1="9.681" y1="16.296" x2="27.985" y2="27.33" gradientUnits="userSpaceOnUse"><stop offset=".37" stop-color="#FCB045"/><stop offset="1" stop-color="#FD1D1D"/></linearGradient><linearGradient id="paint2_linear_5853_596" x1="9.061" y1="10.057" x2="21.958" y2="27.716" gradientUnits="userSpaceOnUse"><stop offset=".37" stop-color="#FCB045"/><stop offset="1" stop-color="#FD1D1D"/></linearGradient><linearGradient id="paint3_linear_5853_596" x1="15.964" y1="20.496" x2="28.915" y2="38.21" gradientUnits="userSpaceOnUse"><stop offset=".37" stop-color="#FCB045"/><stop offset="1" stop-color="#FD1D1D"/></linearGradient><linearGradient id="paint4_linear_5853_596" x1="-3.292" y1="-5.625" x2="68.093" y2="50.424" gradientUnits="userSpaceOnUse"><stop offset=".37" stop-color="#FCB045"/><stop offset="1" stop-color="#FD1D1D"/></linearGradient></defs></svg>