<svg width="27" height="32" fill="none" xmlns="http://www.w3.org/2000/svg"><path d="M13.286 10.571a1.429 1.429 0 110 2.857 1.429 1.429 0 010-2.857zm12.857 4.286c0 7.929-5.486 15.343-12.857 17.143C5.914 30.2.429 22.786.429 14.857V6.286L13.286.57l12.857 5.715v8.571zM13.286 7.714A4.286 4.286 0 009 12a4.272 4.272 0 002.857 4.043v8.814h2.857V22h2.858v-2.857h-2.858v-3.1A4.272 4.272 0 0017.572 12a4.286 4.286 0 00-4.286-4.286z" fill="url(#paint0_linear_5853_252)"/><defs><linearGradient id="paint0_linear_5853_252" x1="-5.143" y1="-5.19" x2="53.781" y2="38.487" gradientUnits="userSpaceOnUse"><stop offset=".37" stop-color="#FCB045"/><stop offset="1" stop-color="#FD1D1D"/></linearGradient></defs></svg>