<svg width="24" height="32" fill="none" xmlns="http://www.w3.org/2000/svg"><path d="M7.5 12.545a4.545 4.545 0 011.336-3.158A4.564 4.564 0 0112 8.055a4.564 4.564 0 013.164 1.332 4.545 4.545 0 011.335 3.158 4.545 4.545 0 01-1.335 3.157A4.565 4.565 0 0112 17.034a4.564 4.564 0 01-3.164-1.332A4.545 4.545 0 017.5 12.545zM12 26.014l6 1.496V22.9a11.327 11.327 0 01-6 1.617 11.34 11.34 0 01-6-1.616v4.61l6-1.497zm0-22.448A8.685 8.685 0 005.64 6.17a8.65 8.65 0 00-2.639 6.375 8.634 8.634 0 002.64 6.33A8.67 8.67 0 0012 21.525a8.686 8.686 0 006.36-2.65 8.649 8.649 0 002.639-6.33 8.634 8.634 0 00-2.64-6.375A8.67 8.67 0 0012 3.566zm11.998 8.979a12.011 12.011 0 01-.855 4.19A11.727 11.727 0 0121 20.447V32l-9-2.993L3.001 32V20.447a11.808 11.808 0 01-3-7.902 11.472 11.472 0 013.495-8.44A11.595 11.595 0 0112 .571a11.615 11.615 0 018.504 3.532 11.492 11.492 0 013.494 8.44z" fill="url(#paint0_linear_5877_963)"/><defs><linearGradient id="paint0_linear_5877_963" x1="-5.2" y1="-5.19" x2="52.429" y2="34.68" gradientUnits="userSpaceOnUse"><stop offset=".37" stop-color="#FCB045"/><stop offset="1" stop-color="#FD1D1D"/></linearGradient></defs></svg>