<svg width="24" height="32" fill="none" xmlns="http://www.w3.org/2000/svg"><path d="M4.857 3.429h14.286V8.57H22V2.857A2.853 2.853 0 0019.143.014L4.857 0A2.866 2.866 0 002 2.857v5.714h2.857V3.43zM16.871 22.27l6.557-6.557-6.557-6.557-2.014 2.029 4.529 4.528-4.529 4.529 2.014 2.028zm-7.728-2.028l-4.529-4.529 4.529-4.528-2.015-2.029-6.557 6.557 6.557 6.557 2.015-2.028zm10 7.757H4.857v-5.143H2v5.714a2.866 2.866 0 002.857 2.858h14.286A2.866 2.866 0 0022 28.57v-5.714h-2.857V28z" fill="url(#paint0_linear_5853_781)"/><defs><linearGradient id="paint0_linear_5853_781" x1="-4.381" y1="-5.762" x2="52.207" y2="31.524" gradientUnits="userSpaceOnUse"><stop offset=".37" stop-color="#FCB045"/><stop offset="1" stop-color="#FD1D1D"/></linearGradient></defs></svg>