<svg width="32" height="32" fill="none" xmlns="http://www.w3.org/2000/svg"><path d="M32 13.98l-4.585-.673a11.42 11.42 0 00-1.155-2.778l2.77-3.725-3.259-3.262-3.722 2.774a11.414 11.414 0 00-2.776-1.155L18.602.57h-4.609l-.672 4.59c-.971.261-1.904.65-2.773 1.156L6.865 3.542l-3.3 3.262 2.772 3.726c-.506.87-.894 1.804-1.154 2.777l-4.588.672-.024 4.555 4.611.73c.26.973.648 1.906 1.154 2.776l-2.773 3.725 3.26 3.263 3.722-2.774c.87.506 1.804.895 2.776 1.156l.672 4.59h4.547l.733-4.59c.973-.26 1.906-.65 2.776-1.156l3.722 2.773 3.26-3.262-2.771-3.724c.505-.87.893-1.804 1.154-2.777L32 18.592V13.98zm-15.702 7.579c-2.975 0-5.27-2.677-5.27-5.273 0-2.98 2.293-5.274 5.27-5.274 2.977 0 5.269 2.295 5.269 5.274s-2.294 5.273-5.269 5.273z" fill="url(#paint0_linear_5853_400)"/><defs><linearGradient id="paint0_linear_5853_400" x1="-6.238" y1="-5.19" x2="55.047" y2="50.333" gradientUnits="userSpaceOnUse"><stop offset=".37" stop-color="#FCB045"/><stop offset="1" stop-color="#FD1D1D"/></linearGradient></defs></svg>