<svg width="72" height="72" fill="none" xmlns="http://www.w3.org/2000/svg"><path d="M47.56 24.356a1.882 1.882 0 00-.929-.506l-6.187-.9-2.757-5.569a2.154 2.154 0 00-1.096-.9 1.914 1.914 0 00-1.52.14c-.308.17-.59.423-.787.732l-2.756 5.597-6.047.872-.112.028c-.647.14-.985.563-1.097.675l-.113.14a1.983 1.983 0 00-.309 1.435c.056.366.225.703.534 1.069l4.388 4.275-1.04 6.131c-.029.31 0 .816.337 1.322l.112.14c.422.479.928.647 1.181.675.113.029.226.029.31.029.281 0 .562-.057.872-.225l5.4-2.841 5.484 2.897c.45.197.956.225 1.406.056a2.043 2.043 0 001.182-1.04c.14-.31.197-.675.168-1.126l-1.04-6.018 4.444-4.331c.337-.366.506-.844.506-1.322v-.141c0-.59-.225-1.012-.535-1.294zm-7.341 6.103l1.012 5.822L36 33.525l-5.231 2.756.984-5.822-4.219-4.134 5.85-.844L36 20.194l2.616 5.287 5.85.844-4.247 4.134z" fill="#000"/><path d="M67.753 10.266H59.57V5.119a2.509 2.509 0 00-2.503-2.503H14.934a2.509 2.509 0 00-2.503 2.503v5.147H4.247a3.457 3.457 0 00-3.46 3.459v7.144c0 7.453 5.344 13.753 12.544 15.075.928 3.656 2.616 6.975 4.978 9.647a23.439 23.439 0 0010.941 6.975l-4.331 9.337h-.028c-1.407 0-2.532 1.125-2.532 2.56v4.95h27.253v-4.95a2.52 2.52 0 00-2.53-2.532l-4.36-9.337a23.445 23.445 0 0010.94-6.975c2.363-2.672 4.05-5.99 4.979-9.647a15.303 15.303 0 0012.543-15.075v-7.172c.029-1.912-1.518-3.46-3.43-3.46zM3.572 20.869v-7.144c0-.394.31-.703.703-.703h8.184v15.216c0 1.575.113 3.15.338 4.724-5.4-1.49-9.225-6.384-9.225-12.093zm52.706 12.993c-.703 3.797-2.306 7.2-4.669 9.872-2.7 3.066-6.272 5.26-10.265 6.328l-2.532.647 6.497 13.978h1.547v1.941H25.144v-1.94h1.547l6.497-13.979-2.504-.647c-3.993-1.068-7.565-3.262-10.265-6.328-2.363-2.672-3.966-6.103-4.669-9.872a31.245 31.245 0 01-.534-5.625V5.373h41.568v22.866c0 1.912-.168 3.796-.506 5.624zm12.15-12.993c0 5.71-3.853 10.603-9.197 12.093.225-1.546.338-3.121.338-4.725V13.023h8.184c.394 0 .703.31.703.703v7.144h-.028z" fill="#000"/></svg>