<svg width="384" height="336" fill="none" xmlns="http://www.w3.org/2000/svg"><path stroke="#FAFF09" stroke-width="15" d="M9.5 53.5h321v273H9.5z"/><path d="M.94 10.94a1.5 1.5 0 000 2.12l9.545 9.547a1.5 1.5 0 102.122-2.122L4.12 12l8.486-8.485a1.5 1.5 0 10-2.122-2.122L.94 10.94zm338.121 2.12a1.501 1.501 0 000-2.12l-9.546-9.547a1.5 1.5 0 00-2.122 2.122L335.879 12l-8.486 8.485a1.501 1.501 0 002.122 2.122l9.546-9.546zM2 13.5h336v-3H2v3zm371.061 31.44a1.501 1.501 0 00-2.122 0l-9.546 9.545a1.501 1.501 0 002.122 2.122L372 48.12l8.485 8.486a1.5 1.5 0 002.122-2.122l-9.546-9.546zm-2.122 290.121a1.502 1.502 0 002.122 0l9.546-9.546a1.502 1.502 0 000-2.122 1.502 1.502 0 00-2.122 0L372 331.879l-8.485-8.486a1.502 1.502 0 00-2.122 0 1.502 1.502 0 000 2.122l9.546 9.546zM370.5 46v288h3V46h-3z" fill="#FAFF09"/></svg>